<svg xmlns="http://www.w3.org/2000/svg" xmlns:xlink="http://www.w3.org/1999/xlink" data-name="Layer 1" viewBox="0 0 128 128" id="instagram">
    <defs>
        <path d="M27.1249 13.1829V14.8711C27.1033 15.0442 27.0789 15.2169 27.0601 15.3904C26.771 18.0616 25.8028 20.4576 24.0973 22.5352C21.9766 25.1188 19.2636 26.7229 15.9685 27.322C15.4697 27.4127 14.963 27.4625 14.4602 27.5313H12.7716C12.7041 27.5163 12.6373 27.4932 12.5689 27.4877C9.6187 27.2478 6.9988 26.1882 4.78505 24.2264C1.32065 21.1552 -0.219867 17.2757 0.182349 12.6698C0.433733 9.79252 1.56418 7.25247 3.49277 5.09952C6.1276 2.15903 9.4388 0.626754 13.3891 0.53057C15.945 0.468541 18.3425 1.09276 20.5237 2.42913C24.0172 4.56952 26.1641 7.66116 26.9175 11.6993C27.009 12.1897 27.0569 12.6883 27.1249 13.1833V13.1829ZM13.6161 6.23253C13.6157 6.26394 13.6149 6.21683 13.6145 6.24784C12.5069 6.24784 11.3988 6.22742 10.2915 6.25412C9.39206 6.27571 8.53068 6.56466 7.77102 7.07463C6.50153 7.92694 5.95634 9.18676 5.92649 10.6531C5.88093 12.9018 5.89782 15.1525 5.92335 17.4021C5.93317 18.2819 6.16059 19.1255 6.661 19.8691C7.51453 21.1372 8.77421 21.6829 10.2409 21.7131C12.4904 21.7594 14.7418 21.7492 16.9921 21.715C18.1076 21.6982 19.1371 21.3566 19.9758 20.5691C20.9059 19.6956 21.2814 18.5783 21.3112 17.3463C21.356 15.5012 21.3572 13.6548 21.3591 11.8092C21.3595 11.2655 21.3191 10.7198 21.2653 10.1784C21.0563 8.08241 19.559 6.56112 17.4611 6.38721C16.1838 6.28121 14.8978 6.28082 13.6157 6.23253H13.6161Z"/>
                                <path d="M7.23193 13.9952C7.26611 12.8343 7.27121 11.6472 7.34466 10.4639C7.4079 9.44356 7.83565 8.60028 8.78227 8.10051C9.3145 7.81942 9.89975 7.71734 10.4901 7.71656C12.7047 7.71459 14.9204 7.69065 17.1333 7.76092C18.7728 7.81274 19.8393 8.87273 19.8829 10.5149C19.9453 12.8587 19.9441 15.206 19.8825 17.5497C19.8397 19.1707 18.765 20.2484 17.1471 20.2912C14.8029 20.3532 12.4545 20.3556 10.1103 20.2924C8.45233 20.248 7.44011 19.1876 7.33877 17.525C7.26768 16.3594 7.26571 15.1895 7.23193 13.9952ZM13.6096 10.0481C11.41 10.0532 9.64091 11.8211 9.63501 14.0196C9.62912 16.2236 11.4167 18.0106 13.6218 18.0059C15.8206 18.0008 17.5902 16.2326 17.5961 14.0341C17.6019 11.8289 15.8159 10.0434 13.6096 10.0485V10.0481ZM17.7591 10.8133C18.2701 10.8121 18.6794 10.407 18.6841 9.89817C18.6888 9.37642 18.2752 8.95989 17.754 8.96106C17.2327 8.96224 16.8246 9.37878 16.8309 9.90328C16.8372 10.4129 17.2469 10.8145 17.7595 10.8133H17.7591Z"/>
                                <path d="M16.2011 14.0138C16.207 15.4366 15.0558 16.6022 13.6358 16.6108C12.2029 16.6198 11.0312 15.4574 11.0312 14.0264C11.0312 12.6052 12.1888 11.4455 13.6099 11.4428C15.033 11.44 16.1952 12.593 16.2011 14.0138Z"/>
        <radialGradient id="a" cx="27.5" cy="121.5" r="137.5" gradientUnits="userSpaceOnUse">
            <stop offset="0" stop-color="#ffd676"></stop>
            <stop offset=".25" stop-color="#f2a454"></stop>
            <stop offset=".38" stop-color="#f05c3c"></stop>
            <stop offset=".7" stop-color="#c22f86"></stop>
            <stop offset=".96" stop-color="#6666ad"></stop>
            <stop offset=".99" stop-color="#5c6cb2"></stop>
        </radialGradient>
        <radialGradient id="d" cx="27.5" cy="-41.5" r="148.5" xlink:href="#a"></radialGradient>
        <radialGradient id="f" cx="13.87" cy="303.38" r="185.63" xlink:href="#a"></radialGradient>
        <radialGradient id="j" cx="13.87" cy="-22.62" r="185.63" xlink:href="#a"></radialGradient>
            </defs>
                <g clip-path="url(#b)">
                    <circle cx="27.5" cy="121.5" r="137.5" fill="url(#a)"></circle>
                </g>
                <g clip-path="url(#c)">
                    <circle cx="27.5" cy="-41.5" r="148.5" fill="url(#d)"></circle>
                </g>
                <g clip-path="url(#e)">
                    <circle cx="13.87" cy="303.38" r="185.63" fill="url(#f)"></circle>
                </g>
                <g clip-path="url(#g)">
                    <circle cx="27.5" cy="-41.5" r="148.5" fill="url(#d)"></circle>
                </g>
                <g clip-path="url(#h)">
                    <circle cx="27.5" cy="-41.5" r="148.5" fill="url(#d)"></circle>
                </g>
                <g clip-path="url(#i)">
                    <circle cx="13.87" cy="-22.62" r="185.63" fill="url(#j)"></circle>
                </g>
                <circle cx="82" cy="46" r="5" fill="#fff"></circle>
                <path fill="#fff" d="M64 48a16 16 0 1 0 16 16 16 16 0 0 0-16-16Zm0 24a8 8 0 1 1 8-8 8 8 0 0 1-8 8Z"></path><rect width="64" height="64" x="32" y="32" fill="none" stroke="#fff" stroke-miterlimit="10" stroke-width="8" rx="12" ry="12"></rect>
</svg>