<svg width="28" height="28" viewBox="0 0 28 28" fill="none" xmlns="http://www.w3.org/2000/svg">
<path d="M13.0336 0.526367C13.5753 0.526367 14.117 0.526367 14.6587 0.526367C15.0383 0.575981 15.4188 0.618168 15.7969 0.676694C19.2343 1.20997 22.0741 2.82376 24.2483 5.54005C26.7775 8.69989 27.7029 12.3214 27.0287 16.3182C26.4713 19.623 24.89 22.3862 22.2694 24.4531C18.2266 27.6414 13.7023 28.3972 8.91309 26.5131C4.31741 24.705 1.58527 21.2139 0.611344 16.3514C0.511939 15.8553 0.46845 15.3482 0.398926 14.8461C0.398926 14.2846 0.398926 13.7231 0.398926 13.1613C0.466675 12.6681 0.520519 12.1726 0.604243 11.6821C1.53498 6.22425 5.79753 1.8395 11.1979 0.791965C11.8041 0.674318 12.4215 0.613414 13.0336 0.526367ZM15.2874 11.9301C15.2871 11.9301 15.2865 11.9301 15.2862 11.9301C15.2862 11.4391 15.3049 10.9471 15.2809 10.4575C15.2575 9.97678 15.0271 9.71534 14.5475 9.69306C13.6505 9.65147 12.7505 9.6378 11.8529 9.66276C11.6059 9.66959 11.3352 9.81487 11.1272 9.96787C10.8766 10.1521 10.9358 10.3303 11.2313 10.4168C11.6804 10.5481 11.8991 10.7807 11.9233 11.229C11.9565 11.8416 11.9787 12.4566 11.965 13.0695C11.9579 13.3894 11.8816 13.7118 11.8044 14.0252C11.739 14.2899 11.5432 14.3571 11.3251 14.1963C11.1657 14.0787 11.0169 13.9352 10.8953 13.7786C10.161 12.8327 9.57342 11.8003 9.14119 10.6821C8.96783 10.2335 8.6563 10.0193 8.18058 10.0193C7.42942 10.0193 6.67827 10.0065 5.92682 10.0074C5.49636 10.008 5.3156 10.2682 5.48867 10.6631C6.4478 12.8502 7.51581 14.9786 9.04031 16.8348C10.4772 18.5847 12.3218 19.4245 14.5978 19.2308C15.0457 19.1928 15.2321 18.9997 15.2901 18.5573C15.3256 18.2885 15.372 18.0202 15.4309 17.7555C15.4907 17.4872 15.4978 17.1604 15.8223 17.0656C16.1622 16.9667 16.374 17.2302 16.58 17.4385C16.9924 17.8553 17.3876 18.289 17.7938 18.7121C18.0823 19.0125 18.4373 19.2326 18.8461 19.2481C19.7615 19.2828 20.6798 19.2938 21.5946 19.2582C22.1218 19.2377 22.3451 18.7614 22.1144 18.2795C22.0729 18.1931 22.0185 18.1129 21.9667 18.0318C21.4126 17.1675 20.6603 16.481 19.9434 15.7632C19.3538 15.1726 19.3408 14.9943 19.8316 14.3075C19.857 14.2718 19.8828 14.2365 19.9085 14.2011C20.3993 13.5297 20.9109 12.8719 21.3736 12.1815C21.6632 11.7489 21.9173 11.2825 22.117 10.8021C22.3262 10.2991 22.1685 10.06 21.623 10.0436C20.6458 10.0142 19.6671 10.0332 18.689 10.0356C18.4234 10.0362 18.2476 10.1779 18.1471 10.4191C18.1 10.5323 18.0548 10.6461 18.0086 10.7596C17.5406 11.9126 16.9394 12.9851 16.0957 13.9073C15.9536 14.0624 15.8294 14.3054 15.569 14.2174C15.3105 14.1298 15.2998 13.8583 15.2924 13.639C15.2747 13.0692 15.2874 12.4994 15.2874 11.9301Z" fill="white"/>
</svg>
