<svg width="28" height="28" viewBox="0 0 28 28" fill="none" xmlns="http://www.w3.org/2000/svg">
<path d="M0.00292969 14.671C0.00292969 14.196 0.00292969 13.7214 0.00292969 13.2463C0.0184577 13.1705 0.0421029 13.0953 0.0477495 13.0191C0.199854 10.9249 0.798037 8.96448 1.88959 7.17381C4.0314 3.65918 7.12925 1.50007 11.1838 0.740608C11.691 0.645675 12.2073 0.599091 12.7194 0.530273C13.247 0.530273 13.7746 0.530273 14.3022 0.530273C14.7542 0.586739 15.2088 0.627324 15.6577 0.702494C18.4594 1.17081 20.9058 2.3707 22.9231 4.37241C25.9835 7.4092 27.3313 11.1074 26.9427 15.3959C26.6851 18.2418 25.5918 20.7753 23.6783 22.903C20.4636 26.4777 16.4366 27.9811 11.6606 27.4083C9.73303 27.1771 7.95118 26.4981 6.31473 25.4507C6.15098 25.3459 6.01123 25.3293 5.82666 25.3893C4.27456 25.8936 2.71928 26.3887 1.16471 26.8856C1.08672 26.9107 1.0059 26.9273 0.903204 26.9541C0.937789 26.8465 0.961435 26.772 0.986138 26.6975C1.48021 25.2252 1.9697 23.7518 2.47295 22.2826C2.55094 22.0546 2.54 21.8852 2.39672 21.6806C1.2727 20.0738 0.547118 18.2976 0.214676 16.3661C0.118684 15.8049 0.0721001 15.2361 0.00292969 14.671ZM17.8771 21.6491C18.3183 21.5641 18.7026 21.5369 19.0534 21.4145C20.9566 20.7506 21.5996 19.8355 21.6501 18.06C21.6579 17.7894 21.5506 17.6111 21.3081 17.4954C20.302 17.0158 19.3022 16.5235 18.2918 16.0527C17.7755 15.812 17.4716 15.9098 17.13 16.3678C16.8675 16.72 16.6116 17.0772 16.3409 17.423C15.928 17.9503 15.6383 18.0198 15.0143 17.765C12.7539 16.8425 11.0878 15.2495 9.83925 13.1835C9.67727 12.9157 9.68997 12.6665 9.89078 12.4315C10.1018 12.1841 10.3093 11.9321 10.5391 11.7027C11.0413 11.2016 11.2357 10.6595 10.8232 10.0098C10.8186 10.0024 10.8175 9.99322 10.814 9.9851C10.4127 9.04036 10.0189 8.09209 9.60245 7.15405C9.53787 7.009 9.38753 6.83502 9.24671 6.80185C8.52748 6.6328 7.8019 6.62221 7.18289 7.09617C6.61506 7.53096 6.21698 8.11361 5.96606 8.78591C5.47128 10.1121 5.62832 11.4045 6.17533 12.6792C6.57765 13.6165 7.1649 14.4378 7.76555 15.2498C8.77946 16.6202 9.93736 17.8522 11.2851 18.9035C12.7352 20.0346 14.389 20.7468 16.1341 21.2634C16.7196 21.4367 17.3284 21.5302 17.8771 21.6491Z" fill="white"/>
</svg>
