<svg width="456" height="78" viewBox="0 0 456 78" fill="none" xmlns="http://www.w3.org/2000/svg">
<path d="M7.15416 62.3448C9.18542 62.1334 10.954 62.6716 12.4662 63.9596C13.9784 65.254 14.8371 66.8431 15.0357 68.727C15.228 70.5468 14.7153 72.2641 13.5043 73.8724C12.2932 75.4872 10.672 76.3971 8.64717 76.6086C6.6159 76.82 4.84736 76.2625 3.32871 74.9361C1.81007 73.6097 0.957834 72.0398 0.7656 70.22C0.566959 68.3297 1.07317 66.5996 2.29065 65.0233C3.50172 63.447 5.12289 62.5499 7.15416 62.3384V62.3448Z" fill="#D2C9C2"/>
<path d="M13.3248 50.9197C14.6705 50.7788 15.8431 51.1376 16.8427 51.9898C17.8423 52.8421 18.4126 53.8993 18.5408 55.1489C18.6689 56.3984 18.3293 57.4877 17.5283 58.5578C16.7274 59.6279 15.6573 60.2302 14.3116 60.3712C12.966 60.5122 11.7934 60.1405 10.7873 59.2627C9.78133 58.3848 9.21744 57.3467 9.08929 56.1421C8.96113 54.8926 9.29434 53.7456 10.0953 52.7011C10.8963 51.6566 11.9728 51.0671 13.3184 50.9261L13.3248 50.9197Z" fill="#D2C9C2"/>
<path d="M23.0775 44.0377C24.0323 43.9352 24.8653 44.1915 25.583 44.8003C26.2942 45.409 26.6979 46.1587 26.794 47.0494C26.8902 47.9401 26.6467 48.7154 26.0764 49.4715C25.5061 50.2276 24.7436 50.657 23.7888 50.7595C22.834 50.862 22.001 50.5993 21.2833 49.9713C20.5657 49.3498 20.1684 48.6065 20.0787 47.7478C19.989 46.8892 20.2261 46.0434 20.7964 45.3001C21.3666 44.5568 22.1292 44.1339 23.0839 44.0377H23.0775Z" fill="#D2C9C2"/>
<path d="M32.6571 41.3978C33.2659 41.3337 33.7977 41.4939 34.2463 41.8848C34.7012 42.2693 34.9575 42.7498 35.0152 43.3137C35.0729 43.8776 34.9191 44.371 34.5602 44.858C34.195 45.3386 33.7144 45.6141 33.1057 45.6782C32.4969 45.7423 31.9651 45.5757 31.5101 45.1784C31.0552 44.7811 30.7989 44.3133 30.7412 43.7687C30.6835 43.224 30.8309 42.6858 31.1962 42.2116C31.5614 41.7374 32.042 41.4683 32.6507 41.4106L32.6571 41.3978Z" fill="#D2C9C2"/>
<path d="M41.0321 40.6929C41.4486 40.648 41.8138 40.757 42.1214 41.0261C42.429 41.2888 42.6084 41.6156 42.6468 42.0065C42.6725 42.282 42.6276 42.5447 42.4995 42.7946C42.2431 43.3009 41.7049 43.6405 41.141 43.6341C40.8078 43.6341 40.5066 43.5123 40.2503 43.2816C39.9363 43.0125 39.7633 42.6857 39.7249 42.3141C39.6864 41.9424 39.789 41.5708 40.0389 41.2504C40.2888 40.93 40.622 40.7442 41.0385 40.6993L41.0321 40.6929Z" fill="#D2C9C2"/>
<path d="M76.1595 66.4458L43.6721 4.12376C41.8907 0.702006 37.668 -0.624404 34.2526 1.15696C30.8373 2.93832 29.5045 7.16105 31.2858 10.5764L63.7733 72.892C65.5546 76.3138 69.7773 77.6402 73.1927 75.8588C76.6144 74.0775 77.9409 69.8548 76.1595 66.4394V66.4458Z" fill="#D2C9C2"/>
<path d="M383.163 41.0005L366.714 56.456L384.085 76.4483H376.71L362.671 60.2815L357.634 64.9592V76.4483H351.822V40.9813H357.634V58.2951L375.288 40.9941H383.156L383.163 41.0005Z" fill="#D2C9C2"/>
<path d="M149.24 40.1995C151.31 40.1995 153.232 40.4942 155.02 41.0773C156.808 41.6668 158.096 42.2628 158.897 42.8715V49.0742C157.91 48.3245 156.571 47.594 154.879 46.8892C153.188 46.1843 151.451 45.8319 149.663 45.8319C147.453 45.8319 145.799 46.3509 144.697 47.3826C143.595 48.4142 143.044 49.4971 143.044 50.6249C143.044 51.5156 143.358 52.4191 143.992 53.3354C144.627 54.2517 145.742 54.9886 147.337 55.5525L153.258 57.6671C155.558 58.468 157.276 59.615 158.403 61.1209C159.531 62.6267 160.095 64.3888 160.095 66.4073C160.095 68.4257 159.544 70.1879 158.442 71.8347C157.34 73.4815 155.808 74.7822 153.86 75.7434C151.912 76.7046 149.67 77.1852 147.132 77.1852C145.767 77.1852 144.351 77.0121 142.871 76.6597C141.391 76.3073 140.064 75.8844 138.892 75.391C137.719 74.8976 136.848 74.4619 136.284 74.0902V67.8875C136.944 68.3552 137.867 68.8871 139.065 69.4702C140.263 70.0597 141.545 70.5531 142.903 70.9504C144.268 71.3477 145.537 71.5463 146.709 71.5463C148.92 71.5463 150.669 71.0529 151.957 70.0661C153.252 69.0793 153.892 67.8554 153.892 66.4009C153.892 65.2731 153.457 64.3824 152.592 63.7224C151.72 63.0624 150.464 62.428 148.824 61.8193L143.608 59.9162C140.885 58.8845 139.071 57.5774 138.181 56.0075C137.29 54.4311 136.841 52.637 136.841 50.6185C136.841 47.6133 137.969 45.1206 140.225 43.147C142.48 41.1734 145.485 40.1866 149.247 40.1866L149.24 40.1995Z" fill="#D2C9C2"/>
<path d="M183.663 30.7545V40.9044H193.954V46.3318H183.663V66.984C183.663 68.4386 184.041 69.592 184.791 70.4378C185.54 71.2837 186.694 71.7066 188.244 71.7066C189.654 71.7066 190.827 71.5336 191.769 71.1811C192.711 70.8287 193.531 70.4442 194.236 70.0213V74.7439C193.294 75.4936 192.301 76.0959 191.243 76.538C190.186 76.9866 188.764 77.2044 186.982 77.2044C183.977 77.2044 181.709 76.3009 180.183 74.4939C178.658 72.687 177.896 70.2776 177.896 67.2724V46.3382H171.129V44.6465C173.43 43.6149 175.358 41.9104 176.909 39.5395C178.46 37.1686 179.825 34.2403 180.997 30.7673H183.676L183.663 30.7545Z" fill="#D2C9C2"/>
<path d="M226.217 41.9681C228.613 41.9681 230.799 42.4935 232.772 43.5508C234.746 44.6081 236.322 46.2036 237.495 48.3438C238.667 50.484 239.257 53.1689 239.257 56.4112V77.198H233.477L233.407 56.9751C233.407 53.9186 232.74 51.5926 231.401 49.997C230.062 48.4015 228.005 47.6005 225.237 47.6005C223.359 47.6005 221.488 48.2925 219.636 49.6766C217.778 51.0607 216.15 52.6691 214.741 54.5017V77.1916H208.961V30.7545H214.741V48.2413C215.49 47.2993 216.458 46.351 217.631 45.3898C218.803 44.4287 220.13 43.6149 221.61 42.9613C223.09 42.3013 224.628 41.9745 226.223 41.9745L226.217 41.9681Z" fill="#D2C9C2"/>
<path d="M304.001 30.7545V40.9044H314.292V46.3318H304.001V66.984C304.001 68.4386 304.379 69.592 305.129 70.4378C305.878 71.2837 307.032 71.7066 308.583 71.7066C309.992 71.7066 311.165 71.5336 312.107 71.1811C313.049 70.8287 313.869 70.4442 314.574 70.0213V74.7439C313.632 75.4936 312.639 76.0959 311.581 76.538C310.524 76.9866 309.102 77.2044 307.32 77.2044C304.315 77.2044 302.047 76.3009 300.522 74.4939C298.996 72.687 298.234 70.2776 298.234 67.2724V46.3382H291.467V44.6465C293.768 43.6149 295.696 41.9104 297.247 39.5395C298.798 37.1686 300.163 34.2403 301.335 30.7673H304.014L304.001 30.7545Z" fill="#D2C9C2"/>
<path d="M420.757 40.9042V61.768C420.757 64.8693 420.097 67.5478 418.784 69.8033C417.47 72.0589 415.682 73.7954 413.427 75.0193C411.171 76.2431 408.634 76.8519 405.814 76.8519C402.995 76.8519 400.457 76.2431 398.202 75.0193C395.946 73.7954 394.159 72.0589 392.845 69.8033C391.531 67.5478 390.871 64.8693 390.871 61.768V40.9042H396.863V61.768C396.863 64.8245 397.766 67.1569 399.573 68.7781C401.38 70.3992 403.463 71.2066 405.808 71.2066C408.153 71.2066 410.236 70.3992 412.043 68.7781C413.85 67.1569 414.753 64.8181 414.753 61.768V40.9042H420.744H420.757Z" fill="#D2C9C2"/>
<path d="M444.376 40.1995C446.446 40.1995 448.368 40.4942 450.156 41.0773C451.944 41.6668 453.232 42.2628 454.033 42.8715V49.0742C453.046 48.3245 451.707 47.594 450.015 46.8892C448.323 46.1843 446.587 45.8319 444.799 45.8319C442.588 45.8319 440.935 46.3509 439.833 47.3826C438.731 48.4142 438.18 49.4971 438.18 50.6249C438.18 51.5156 438.494 52.4191 439.128 53.3354C439.763 54.2517 440.878 54.9886 442.473 55.5525L448.394 57.6671C450.694 58.468 452.412 59.615 453.539 61.1209C454.667 62.6267 455.231 64.3888 455.231 66.4073C455.231 68.4257 454.68 70.1879 453.578 71.8347C452.476 73.4815 450.944 74.7822 448.996 75.7434C447.048 76.7046 444.806 77.1852 442.268 77.1852C440.903 77.1852 439.487 77.0121 438.007 76.6597C436.527 76.3073 435.2 75.8844 434.028 75.391C432.855 74.8976 431.984 74.4619 431.42 74.0902V67.8875C432.08 68.3552 433.002 68.8871 434.201 69.4702C435.399 70.0597 436.68 70.5531 438.039 70.9504C439.404 71.3477 440.672 71.5463 441.845 71.5463C444.056 71.5463 445.805 71.0529 447.093 70.0661C448.387 69.0793 449.028 67.8554 449.028 66.4009C449.028 65.2731 448.593 64.3824 447.727 63.7224C446.856 63.0624 445.6 62.428 443.96 61.8193L438.744 59.9162C436.02 58.8845 434.207 57.5774 433.316 56.0075C432.426 54.4311 431.977 52.637 431.977 50.6185C431.977 47.6133 433.105 45.1206 435.36 43.147C437.616 41.1734 440.621 40.1866 444.383 40.1866L444.376 40.1995Z" fill="#D2C9C2"/>
<path d="M329.728 40.9042V46.3316H329.735V76.147H335.514V40.9042H329.728Z" fill="#D2C9C2"/>
<path d="M117.112 68.3361C116.471 68.7782 115.811 69.2139 115.1 69.6304C112.889 70.9248 110.518 71.572 107.981 71.572C105.725 71.572 103.726 71.0914 101.989 70.1239C100.253 69.1627 98.8431 67.8555 97.7602 66.2151C96.6772 64.5683 95.998 62.7613 95.7161 60.7877H122.783V57.3339C122.783 54.0916 122.187 51.1761 120.988 48.5937C119.79 46.0114 117.996 43.9673 115.599 42.4615C113.203 40.9556 110.198 40.2059 106.577 40.2059C103.29 40.2059 100.362 41.0518 97.805 42.7434C95.2419 44.4351 93.2363 46.6906 91.7817 49.51C90.3271 52.3295 89.5966 55.4052 89.5966 58.7436C89.5966 62.0821 90.3848 65.145 91.9547 67.9388C93.531 70.7326 95.7033 72.9753 98.4714 74.667C101.246 76.3586 104.418 77.2044 107.987 77.2044C109.82 77.2044 111.569 76.9097 113.235 76.3266C114.901 75.7371 116.381 75.013 117.676 74.1415C118.867 73.3406 119.777 72.5652 120.431 71.8219L117.112 68.3361ZM99.3813 48.7667C101.259 46.8188 103.655 45.8448 106.571 45.8448C108.218 45.8448 109.788 46.21 111.293 46.9341C112.799 47.6646 114.081 48.7539 115.132 50.2085C116.189 51.663 116.836 53.5469 117.073 55.8473H95.8571C96.3248 53.0728 97.5039 50.7147 99.3813 48.7667Z" fill="#D2C9C2"/>
<path d="M277.902 68.3361C277.261 68.7782 276.601 69.2139 275.89 69.6304C273.679 70.9248 271.308 71.572 268.771 71.572C266.515 71.572 264.516 71.0914 262.78 70.1239C261.043 69.1627 259.634 67.8555 258.551 66.2151C257.468 64.5683 256.788 62.7613 256.507 60.7877H283.573V57.3339C283.573 54.0916 282.977 51.1761 281.779 48.5937C280.581 46.0114 278.786 43.9673 276.39 42.4615C273.993 40.9556 270.988 40.2059 267.368 40.2059C264.081 40.2059 261.152 41.0518 258.595 42.7434C256.032 44.4351 254.027 46.6906 252.572 49.51C251.118 52.3295 250.387 55.4052 250.387 58.7436C250.387 62.0821 251.175 65.145 252.745 67.9388C254.321 70.7326 256.494 72.9753 259.262 74.667C262.036 76.3586 265.208 77.2044 268.777 77.2044C270.61 77.2044 272.359 76.9097 274.025 76.3266C275.691 75.7371 277.172 75.013 278.466 74.1415C279.658 73.3406 280.568 72.5652 281.221 71.8219L277.902 68.3361ZM260.172 48.7667C262.049 46.8188 264.446 45.8448 267.361 45.8448C269.008 45.8448 270.578 46.21 272.084 46.9341C273.59 47.6646 274.871 48.7539 275.922 50.2085C276.979 51.663 277.627 53.5469 277.864 55.8473H256.647C257.115 53.0728 258.294 50.7147 260.172 48.7667Z" fill="#D2C9C2"/>
</svg>
