<svg width="237" height="24" viewBox="0 0 237 24" fill="none" xmlns="http://www.w3.org/2000/svg">
<path d="M8.50151 23.4548C6.86552 23.4548 5.30193 23.2183 3.8059 22.7502C2.30987 22.2821 1.1227 21.6788 0.244385 20.9405L1.59081 17.9194C2.43052 18.5758 3.46326 19.1259 4.70352 19.5651C5.93895 20.0042 7.20816 20.2214 8.50633 20.2214C9.60181 20.2214 10.4898 20.1008 11.1702 19.8643C11.8459 19.623 12.3477 19.2997 12.6663 18.8895C12.9848 18.4792 13.144 18.016 13.144 17.4996C13.144 16.8626 12.9124 16.3462 12.4539 15.9601C11.9955 15.5692 11.4019 15.2604 10.6732 15.0336C9.94445 14.8067 9.13852 14.5896 8.25056 14.3917C7.36259 14.1938 6.47463 13.9574 5.58666 13.6871C4.69869 13.4169 3.89277 13.0694 3.16406 12.6399C2.43534 12.2104 1.84176 11.6361 1.3833 10.9219C0.924837 10.2028 0.693194 9.2859 0.693194 8.17112C0.693194 7.05633 0.997226 5.98981 1.60529 5.04393C2.21335 4.09806 3.13993 3.34039 4.38984 2.77093C5.63492 2.20148 7.21781 1.91675 9.1337 1.91675C10.3884 1.91675 11.6383 2.076 12.8738 2.39451C14.1092 2.71302 15.1854 3.17148 16.1071 3.76989L14.8813 6.79091C13.9451 6.23111 12.9751 5.81608 11.981 5.55065C10.982 5.2804 10.0265 5.14528 9.10957 5.14528C8.03339 5.14528 7.1599 5.27558 6.49393 5.53618C5.82795 5.79677 5.33571 6.13459 5.02685 6.55444C4.718 6.97429 4.56357 7.45206 4.56357 7.99256C4.56357 8.62958 4.78556 9.14595 5.23919 9.53202C5.688 9.92292 6.27676 10.227 7.00548 10.4441C7.73419 10.6661 8.54494 10.8785 9.44256 11.086C10.3402 11.2935 11.233 11.5299 12.1209 11.7905C13.0089 12.0511 13.8148 12.389 14.5435 12.8088C15.2722 13.2287 15.861 13.7981 16.3098 14.5124C16.7586 15.2266 16.9806 16.1387 16.9806 17.2342C16.9806 18.3296 16.6766 19.3817 16.0685 20.3324C15.4605 21.2783 14.5291 22.0359 13.2695 22.6054C12.0148 23.1749 10.427 23.4596 8.51116 23.4596L8.50151 23.4548Z" fill="white"/>
<path d="M22.6559 4.54693C21.9561 4.54693 21.3818 4.32976 20.933 3.8906C20.4842 3.45145 20.2622 2.92542 20.2622 2.30288C20.2622 1.68034 20.4842 1.13019 20.933 0.700683C21.3818 0.271178 21.9561 0.0588379 22.6559 0.0588379C23.3556 0.0588379 23.9251 0.261526 24.3739 0.671728C24.8227 1.08193 25.0447 1.59348 25.0447 2.21119C25.0447 2.86751 24.8227 3.42249 24.3884 3.8713C23.9492 4.32011 23.3701 4.54693 22.651 4.54693H22.6559ZM20.7689 23.1556V7.18187H24.509V23.1556H20.7689Z" fill="white"/>
<path d="M29.7161 23.1555V0.956299H33.4561V23.1555H29.7161Z" fill="white"/>
<path d="M47.7264 6.99833C49.0004 6.99833 50.1442 7.24928 51.1528 7.74635C52.1614 8.24341 52.9528 9.00591 53.5319 10.0338C54.1111 11.0617 54.4006 12.384 54.4006 13.9959V23.1506H50.6605V14.4785C50.6605 13.0645 50.3275 12.0076 49.6567 11.3079C48.9859 10.6081 48.0545 10.2606 46.8577 10.2606C45.9794 10.2606 45.2024 10.4392 44.522 10.8011C43.8464 11.1583 43.3203 11.6939 42.9536 12.4033C42.582 13.1127 42.3986 14.0055 42.3986 15.0817V23.1603H38.6585V0.956299H42.3986V11.4864L41.5927 10.1689C42.1525 9.15068 42.9632 8.36889 44.0297 7.81873C45.0963 7.26858 46.3269 6.9935 47.7264 6.9935V6.99833Z" fill="white"/>
<path d="M66.6681 23.3679C65.0322 23.3679 63.5747 23.0156 62.3007 22.3062C61.0218 21.5968 60.0181 20.6268 59.2797 19.3913C58.5413 18.1559 58.1746 16.7467 58.1746 15.1735C58.1746 13.6002 58.5413 12.1669 59.2797 10.9412C60.0181 9.71539 61.0267 8.75021 62.3007 8.05528C63.5747 7.35552 65.0322 7.00806 66.6681 7.00806C68.3041 7.00806 69.7953 7.35552 71.0838 8.05528C72.3724 8.75503 73.3762 9.71056 74.1049 10.9267C74.8336 12.1428 75.1955 13.5616 75.1955 15.1735C75.1955 16.7853 74.8336 18.1559 74.1049 19.3913C73.3762 20.6268 72.3675 21.6016 71.0838 22.3062C69.7953 23.0156 68.3283 23.3679 66.6681 23.3679ZM66.6681 20.1683C67.5851 20.1683 68.4055 19.9704 69.1197 19.5699C69.8388 19.1693 70.4034 18.5951 70.8088 17.8326C71.219 17.0749 71.4217 16.1869 71.4217 15.1687C71.4217 14.1504 71.219 13.2383 70.8088 12.4903C70.3986 11.7423 69.8388 11.168 69.1197 10.7723C68.4007 10.3717 67.5947 10.1738 66.6971 10.1738C65.7995 10.1738 64.9646 10.3717 64.26 10.7723C63.5506 11.1728 62.9908 11.7471 62.571 12.4903C62.1511 13.2383 61.9436 14.1311 61.9436 15.1687C61.9436 16.2062 62.1511 17.0749 62.571 17.8326C62.9908 18.5902 63.5554 19.1693 64.26 19.5699C64.9694 19.9704 65.7705 20.1683 66.6681 20.1683Z" fill="white"/>
<path d="M85.8462 23.3677C84.4901 23.3677 83.2933 23.1119 82.2557 22.6052C81.2182 22.0985 80.4123 21.3167 79.8331 20.2695C79.254 19.2223 78.9645 17.9 78.9645 16.3026V7.18164H82.7046V15.8007C82.7046 17.2388 83.0279 18.3102 83.6794 19.0196C84.3261 19.729 85.2478 20.0813 86.4446 20.0813C87.3229 20.0813 88.0854 19.9027 88.7321 19.5408C89.3788 19.1837 89.8903 18.6432 90.2571 17.9241C90.6239 17.205 90.8121 16.3171 90.8121 15.2602V7.18164H94.5521V23.1554H90.9906V18.8458L91.618 20.1633C91.0775 21.2009 90.2909 21.9923 89.2533 22.5425C88.2157 23.0926 87.0768 23.3677 85.8414 23.3677H85.8462Z" fill="white"/>
<path d="M107.268 23.3679C105.492 23.3679 103.943 23.0156 102.616 22.3062C101.289 21.5968 100.261 20.6268 99.5325 19.3913C98.8038 18.1559 98.4418 16.7467 98.4418 15.1735C98.4418 13.6002 98.7941 12.1669 99.5035 10.9412C100.213 9.71539 101.188 8.75021 102.438 8.05528C103.683 7.35552 105.106 7.00806 106.704 7.00806C108.301 7.00806 109.648 7.34587 110.864 8.02632C112.08 8.70677 113.04 9.6623 113.735 10.8977C114.435 12.1332 114.782 13.5906 114.782 15.2652C114.782 15.4244 114.778 15.603 114.768 15.8057C114.758 16.0035 114.744 16.1966 114.724 16.3751H101.41V13.8898H112.751L111.284 14.6668C111.303 13.7498 111.115 12.9439 110.714 12.2442C110.314 11.5444 109.773 10.9991 109.083 10.5985C108.393 10.198 107.601 10.0001 106.704 10.0001C105.806 10.0001 104.981 10.198 104.296 10.5985C103.606 10.9991 103.07 11.5492 102.679 12.2586C102.293 12.968 102.095 13.7981 102.095 14.7585V15.3569C102.095 16.3124 102.317 17.1618 102.756 17.9001C103.195 18.6385 103.813 19.2079 104.609 19.6037C105.406 20.0042 106.323 20.2021 107.36 20.2021C108.258 20.2021 109.068 20.0621 109.783 19.7822C110.502 19.5023 111.139 19.0632 111.699 18.4648L113.701 20.7667C112.982 21.6064 112.08 22.2483 110.994 22.6971C109.908 23.1459 108.663 23.3727 107.268 23.3727V23.3679Z" fill="white"/>
<path d="M116.544 10.2896V7.29755H127.194V10.2896H116.544ZM124.68 23.363C122.924 23.363 121.567 22.9094 120.612 22.0021C119.656 21.0948 119.179 19.7532 119.179 17.9773V3.64917H122.919V17.8904C122.919 18.6481 123.112 19.2368 123.503 19.6567C123.889 20.0765 124.434 20.2841 125.134 20.2841C125.974 20.2841 126.668 20.0669 127.228 19.6277L128.275 22.2916C127.836 22.6488 127.296 22.919 126.659 23.0976C126.022 23.2761 125.361 23.3678 124.685 23.3678L124.68 23.363Z" fill="white"/>
<path d="M129.139 10.2896V7.29755H139.79V10.2896H129.139ZM137.276 23.363C135.519 23.363 134.163 22.9094 133.208 22.0021C132.252 21.0948 131.769 19.7532 131.769 17.9773V3.64917H135.51V17.8904C135.51 18.6481 135.703 19.2368 136.093 19.6567C136.484 20.0765 137.025 20.2841 137.725 20.2841C138.564 20.2841 139.259 20.0669 139.819 19.6277L140.866 22.2916C140.427 22.6488 139.887 22.919 139.25 23.0976C138.613 23.2761 137.951 23.3678 137.276 23.3678V23.363Z" fill="white"/>
<path d="M151.223 23.3679C149.447 23.3679 147.898 23.0156 146.571 22.3062C145.244 21.5968 144.216 20.6268 143.487 19.3913C142.758 18.1559 142.396 16.7467 142.396 15.1735C142.396 13.6002 142.749 12.1669 143.458 10.9412C144.167 9.71539 145.142 8.75021 146.392 8.05528C147.637 7.35552 149.061 7.00806 150.658 7.00806C152.256 7.00806 153.602 7.34587 154.818 8.02632C156.034 8.70677 156.995 9.6623 157.69 10.8977C158.389 12.1332 158.737 13.5906 158.737 15.2652C158.737 15.4244 158.732 15.603 158.722 15.8057C158.713 16.0035 158.698 16.1966 158.679 16.3751H145.364V13.8898H156.705L155.238 14.6668C155.257 13.7498 155.069 12.9439 154.669 12.2442C154.268 11.5444 153.727 10.9991 153.037 10.5985C152.347 10.198 151.556 10.0001 150.658 10.0001C149.761 10.0001 148.935 10.198 148.25 10.5985C147.56 10.9991 147.024 11.5492 146.633 12.2586C146.247 12.968 146.049 13.7981 146.049 14.7585V15.3569C146.049 16.3124 146.271 17.1618 146.711 17.9001C147.15 18.6385 147.767 19.2079 148.564 19.6037C149.36 20.0042 150.277 20.2021 151.315 20.2021C152.212 20.2021 153.023 20.0621 153.737 19.7822C154.456 19.5023 155.093 19.0632 155.653 18.4648L157.656 20.7667C156.937 21.6064 156.034 22.2483 154.948 22.6971C153.863 23.1459 152.618 23.3727 151.223 23.3727V23.3679Z" fill="white"/>
<path d="M171.54 23.1556V2.21118H180.159C182.012 2.21118 183.604 2.51039 184.932 3.1088C186.259 3.70721 187.282 4.56622 188.001 5.68101C188.72 6.80062 189.077 8.12291 189.077 9.66238C189.077 11.2018 188.72 12.5241 188.001 13.6437C187.282 14.7585 186.259 15.6175 184.932 16.216C183.604 16.8144 182.017 17.1136 180.159 17.1136H173.697L175.434 15.2894V23.1604H171.544L171.54 23.1556ZM175.429 15.7044L173.692 13.8175H179.975C181.689 13.8175 182.982 13.4555 183.851 12.7268C184.719 11.9981 185.154 10.975 185.154 9.66238C185.154 8.34973 184.719 7.29768 183.851 6.57862C182.982 5.85956 181.693 5.50245 179.975 5.50245H173.692L175.429 3.58656V15.7044Z" fill="white"/>
<path d="M193.261 23.1556V2.21118H201.88C203.733 2.21118 205.326 2.51039 206.653 3.1088C207.98 3.70721 209.003 4.56622 209.722 5.68101C210.441 6.80062 210.799 8.12291 210.799 9.66238C210.799 11.2018 210.441 12.5193 209.722 13.6244C209.003 14.7296 207.98 15.5789 206.653 16.1677C205.326 16.7565 203.738 17.0508 201.88 17.0508H195.418L197.156 15.2846V23.1556H193.266H193.261ZM197.151 15.7044L195.414 13.8513H201.697C203.41 13.8513 204.703 13.4845 205.572 12.7461C206.441 12.0078 206.875 10.9798 206.875 9.66238C206.875 8.3449 206.441 7.29768 205.572 6.57862C204.703 5.85956 203.415 5.50245 201.697 5.50245H195.414L197.151 3.58656V15.7044ZM206.967 23.1556L201.673 15.5548H205.833L211.16 23.1556H206.972H206.967Z" fill="white"/>
<path d="M225.247 23.4547C223.611 23.4547 222.106 23.1844 220.73 22.6488C219.355 22.1083 218.158 21.3554 217.14 20.3902C216.121 19.4251 215.335 18.2862 214.775 16.9783C214.215 15.6705 213.935 14.242 213.935 12.6833C213.935 11.1245 214.215 9.69605 214.775 8.38823C215.335 7.08041 216.121 5.94632 217.14 4.97631C218.158 4.01113 219.355 3.25829 220.73 2.71779C222.106 2.17729 223.602 1.91187 225.218 1.91187C226.835 1.91187 228.355 2.18212 229.721 2.71779C231.087 3.25829 232.279 4.01113 233.297 4.97631C234.315 5.94632 235.102 7.08041 235.662 8.38823C236.221 9.69605 236.501 11.1245 236.501 12.6833C236.501 14.242 236.221 15.6753 235.662 16.9928C235.102 18.3103 234.315 19.4444 233.297 20.4047C232.279 21.3603 231.087 22.1083 229.721 22.6488C228.355 23.1893 226.864 23.4547 225.247 23.4547ZM225.218 20.0428C226.275 20.0428 227.255 19.8642 228.152 19.5023C229.05 19.1452 229.827 18.6288 230.488 17.9628C231.144 17.2968 231.661 16.515 232.028 15.6271C232.394 14.7391 232.583 13.7546 232.583 12.6785C232.583 11.6023 232.399 10.6178 232.028 9.72983C231.656 8.84186 231.144 8.06489 230.488 7.39409C229.832 6.72812 229.05 6.21174 228.152 5.85463C227.255 5.49751 226.275 5.31413 225.218 5.31413C224.161 5.31413 223.187 5.49269 222.303 5.85463C221.415 6.21174 220.638 6.72812 219.968 7.39409C219.297 8.06489 218.781 8.84186 218.414 9.72983C218.042 10.6178 217.859 11.6023 217.859 12.6785C217.859 13.7546 218.042 14.715 218.414 15.6126C218.781 16.5102 219.297 17.292 219.953 17.9628C220.61 18.6336 221.391 19.1452 222.289 19.5023C223.187 19.8594 224.161 20.0428 225.223 20.0428H225.218Z" fill="white"/>
</svg>
