<svg width="224" height="21" viewBox="0 0 224 21" fill="none" xmlns="http://www.w3.org/2000/svg">
<path d="M7.82891 21C6.27777 21 4.79526 20.7878 3.37682 20.3676C1.95837 19.9474 0.832765 19.406 0 18.7432L1.2766 16.0316C2.07276 16.6207 3.05195 17.1145 4.22788 17.5087C5.39924 17.9029 6.60264 18.0978 7.82891 18.0978C8.86757 18.0978 9.70949 17.9895 10.3547 17.7773C10.9952 17.5607 11.4711 17.2704 11.7731 16.9023C12.0751 16.5341 12.2261 16.1182 12.2261 15.6547C12.2261 15.0829 12.0065 14.6195 11.5718 14.2729C11.1371 13.9221 10.5743 13.6448 9.88336 13.4412C9.19244 13.2377 8.42831 13.0427 7.5864 12.8651C6.74448 12.6875 5.90256 12.4753 5.06065 12.2327C4.21873 11.9901 3.4546 11.6782 2.76368 11.2927C2.07276 10.9072 1.50996 10.3917 1.07527 9.75065C0.640588 9.10522 0.420958 8.2822 0.420958 7.28159C0.420958 6.28097 0.709223 5.32367 1.28575 4.47466C1.86228 3.62565 2.7408 2.94557 3.92589 2.43443C5.1064 1.92329 6.60721 1.66772 8.42374 1.66772C9.6134 1.66772 10.7985 1.81067 11.9699 2.09656C13.1412 2.38245 14.1616 2.79396 15.0355 3.33109L13.8733 6.04272C12.9856 5.54025 12.0659 5.16772 11.1234 4.92948C10.1762 4.68691 9.27023 4.56562 8.40086 4.56562C7.38049 4.56562 6.5523 4.68258 5.92087 4.91649C5.28485 5.1504 4.82271 5.45362 4.52987 5.83047C4.23703 6.20733 4.09061 6.63617 4.09061 7.12131C4.09061 7.6931 4.30109 8.15659 4.7312 8.50312C5.15674 8.85399 5.71496 9.12688 6.40588 9.32181C7.0968 9.52107 7.86551 9.71166 8.71658 9.89792C9.56764 10.0842 10.4141 10.2964 11.2561 10.5303C12.098 10.7643 12.8621 11.0675 13.553 11.4443C14.2439 11.8212 14.8022 12.3323 15.2277 12.9734C15.6532 13.6188 15.8683 14.4332 15.8683 15.4165C15.8683 16.3998 15.58 17.3441 15.0035 18.1974C14.427 19.0464 13.5439 19.7265 12.3496 20.2377C11.16 20.7488 9.65458 21.0044 7.83806 21.0044L7.82891 21Z" fill="url(#paint0_linear_0_62)"/>
<path d="M21.2492 4.02847C20.5858 4.02847 20.0413 3.83354 19.6157 3.43936C19.1902 3.04517 18.9751 2.57302 18.9751 2.01423C18.9751 1.45545 19.1902 0.961634 19.6157 0.576114C20.0413 0.190594 20.5858 0 21.2492 0C21.9127 0 22.4526 0.181931 22.8782 0.550124C23.3037 0.918317 23.5187 1.37748 23.5187 1.93193C23.5187 2.52104 23.3083 3.01918 22.8965 3.42203C22.4801 3.82488 21.931 4.02847 21.2492 4.02847ZM19.4602 20.7314V6.39356H23.0063V20.7314H19.4602Z" fill="url(#paint1_linear_0_62)"/>
<path d="M27.9434 20.7314V0.805664H31.4895V20.7314H27.9434Z" fill="url(#paint2_linear_0_62)"/>
<path d="M45.0196 6.22893C46.2276 6.22893 47.312 6.45418 48.2683 6.90034C49.2246 7.34651 49.975 8.03091 50.5241 8.95356C51.0732 9.87621 51.3477 11.0631 51.3477 12.5099V20.7271H47.8016V12.943C47.8016 11.6739 47.4859 10.7252 46.8499 10.0971C46.2139 9.46903 45.3308 9.15715 44.196 9.15715C43.3632 9.15715 42.6266 9.31742 41.9814 9.6423C41.3362 9.96284 40.8421 10.4437 40.4943 11.0804C40.142 11.7172 39.9681 12.5185 39.9681 13.4845V20.7357H36.422V0.805664H39.9681V10.2574L39.204 9.07485C39.7348 8.16086 40.5035 7.45913 41.5147 6.96532C42.5259 6.47151 43.6927 6.2246 45.0196 6.2246V6.22893Z" fill="url(#paint3_linear_0_62)"/>
<path d="M62.979 20.922C61.4278 20.922 60.046 20.6057 58.838 19.969C57.6255 19.3322 56.6738 18.4616 55.9737 17.3526C55.2736 16.2437 54.9259 14.9789 54.9259 13.5668C54.9259 12.1546 55.2736 10.8681 55.9737 9.76787C56.6738 8.66762 57.6301 7.80129 58.838 7.17752C60.046 6.54943 61.4278 6.23755 62.979 6.23755C64.5301 6.23755 65.944 6.54943 67.1657 7.17752C68.3874 7.80562 69.3391 8.66329 70.03 9.75488C70.721 10.8465 71.0641 12.12 71.0641 13.5668C71.0641 15.0135 70.721 16.2437 70.03 17.3526C69.3391 18.4616 68.3828 19.3366 67.1657 19.969C65.944 20.6057 64.553 20.922 62.979 20.922ZM62.979 18.05C63.8484 18.05 64.6262 17.8725 65.3034 17.5129C65.9852 17.1534 66.5205 16.6379 66.9049 15.9535C67.2938 15.2734 67.486 14.4764 67.486 13.5624C67.486 12.6484 67.2938 11.8298 66.9049 11.1583C66.5159 10.4869 65.9852 9.97146 65.3034 9.61626C64.6216 9.25673 63.8575 9.07913 63.0064 9.07913C62.1554 9.07913 61.3638 9.25673 60.6957 9.61626C60.0231 9.97579 59.4878 10.4913 59.0943 11.1583C58.6962 11.8298 58.4994 12.6311 58.4994 13.5624C58.4994 14.4937 58.6962 15.2734 59.0943 15.9535C59.4923 16.6336 60.0277 17.1534 60.6957 17.5129C61.3684 17.8725 62.1279 18.05 62.979 18.05Z" fill="url(#paint4_linear_0_62)"/>
<path d="M81.1625 20.922C79.8768 20.922 78.742 20.6924 77.7583 20.2376C76.7745 19.7828 76.0104 19.0811 75.4613 18.1411C74.9122 17.2011 74.6377 16.0142 74.6377 14.5804V6.39355H78.1838V14.1299C78.1838 15.4208 78.4904 16.3824 79.1081 17.0192C79.7212 17.6559 80.5952 17.9721 81.7299 17.9721C82.5627 17.9721 83.2856 17.8119 83.8988 17.487C84.5119 17.1664 84.9969 16.6813 85.3447 16.0359C85.6924 15.3905 85.8709 14.5934 85.8709 13.6448V6.39355H89.417V20.7314H86.0402V16.8632L86.635 18.0458C86.1225 18.9771 85.3767 19.6875 84.3929 20.1813C83.4092 20.6751 82.3293 20.922 81.158 20.922H81.1625Z" fill="url(#paint5_linear_0_62)"/>
<path d="M101.474 20.922C99.7899 20.922 98.3212 20.6057 97.0629 19.969C95.8046 19.3322 94.83 18.4616 94.139 17.3526C93.4481 16.2437 93.1049 14.9789 93.1049 13.5668C93.1049 12.1546 93.439 10.8681 94.1116 9.76787C94.7842 8.66762 95.7085 7.80129 96.8936 7.17752C98.0741 6.54943 99.4239 6.23755 100.934 6.23755C102.444 6.23755 103.725 6.54077 104.878 7.15153C106.031 7.7623 106.937 8.61997 107.601 9.72888C108.264 10.8378 108.593 12.146 108.593 13.6491C108.593 13.792 108.589 13.9523 108.58 14.1342C108.571 14.3118 108.557 14.4851 108.539 14.6453H95.9144V12.4145H106.667L105.276 13.1119C105.294 12.2889 105.116 11.5655 104.736 10.9374C104.356 10.3093 103.844 9.81985 103.19 9.46032C102.535 9.10079 101.785 8.92319 100.934 8.92319C100.083 8.92319 99.3049 9.10079 98.6506 9.46032C97.9963 9.81985 97.4884 10.3137 97.1178 10.9504C96.7471 11.5872 96.5641 12.3322 96.5641 13.1942V13.7314C96.5641 14.589 96.77 15.3514 97.1864 16.0142C97.6028 16.6769 98.1885 17.188 98.9435 17.5432C99.6984 17.9028 100.568 18.0804 101.552 18.0804C102.403 18.0804 103.167 17.9548 103.849 17.7035C104.53 17.4523 105.134 17.0581 105.665 16.521L107.564 18.5872C106.882 19.3409 106.027 19.917 104.997 20.3199C103.967 20.7227 102.787 20.9263 101.465 20.9263L101.474 20.922Z" fill="url(#paint6_linear_0_62)"/>
<path d="M110.268 9.18305V6.49741H120.367V9.18305H110.268ZM117.983 20.9176C116.317 20.9176 115.031 20.5104 114.125 19.696C113.219 18.8817 112.762 17.6775 112.762 16.0834V3.22266H116.308V16.0055C116.308 16.6855 116.491 17.214 116.862 17.5908C117.232 17.9677 117.745 18.154 118.408 18.154C119.204 18.154 119.863 17.959 120.394 17.5649L121.387 19.9559C120.971 20.2765 120.458 20.5191 119.854 20.6793C119.25 20.8396 118.623 20.9219 117.983 20.9219V20.9176Z" fill="url(#paint7_linear_0_62)"/>
<path d="M122.211 9.18305V6.49741H132.309V9.18305H122.211ZM129.925 20.9176C128.26 20.9176 126.974 20.5104 126.068 19.696C125.162 18.8817 124.704 17.6775 124.704 16.0834V3.22266H128.25V16.0055C128.25 16.6855 128.433 17.214 128.804 17.5908C129.175 17.9677 129.687 18.154 130.351 18.154C131.147 18.154 131.806 17.959 132.336 17.5649L133.329 19.9559C132.913 20.2765 132.4 20.5191 131.796 20.6793C131.192 20.8396 130.566 20.9219 129.925 20.9219V20.9176Z" fill="url(#paint8_linear_0_62)"/>
<path d="M143.149 20.922C141.465 20.922 139.996 20.6057 138.738 19.969C137.479 19.3322 136.505 18.4616 135.814 17.3526C135.123 16.2437 134.78 14.9789 134.78 13.5668C134.78 12.1546 135.114 10.8681 135.786 9.76787C136.459 8.66762 137.383 7.80129 138.568 7.17752C139.749 6.54943 141.099 6.23755 142.609 6.23755C144.119 6.23755 145.4 6.54077 146.553 7.15153C147.706 7.7623 148.612 8.61997 149.275 9.72888C149.939 10.8378 150.268 12.146 150.268 13.6491C150.268 13.792 150.264 13.9523 150.255 14.1342C150.245 14.3118 150.232 14.4851 150.213 14.6453H137.589V12.4145H148.342L146.951 13.1119C146.969 12.2889 146.791 11.5655 146.411 10.9374C146.031 10.3093 145.519 9.81985 144.864 9.46032C144.21 9.10079 143.46 8.92319 142.609 8.92319C141.758 8.92319 140.98 9.10079 140.325 9.46032C139.671 9.81985 139.163 10.3137 138.793 10.9504C138.422 11.5872 138.239 12.3322 138.239 13.1942V13.7314C138.239 14.589 138.445 15.3514 138.861 16.0142C139.278 16.6769 139.863 17.188 140.618 17.5432C141.373 17.9028 142.243 18.0804 143.226 18.0804C144.077 18.0804 144.842 17.9548 145.523 17.7035C146.205 17.4523 146.809 17.0581 147.34 16.521L149.239 18.5872C148.557 19.3409 147.701 19.917 146.672 20.3199C145.642 20.7227 144.462 20.9263 143.139 20.9263L143.149 20.922Z" fill="url(#paint9_linear_0_62)"/>
<path d="M162.412 20.7314V1.93188H170.584C172.341 1.93188 173.851 2.20045 175.109 2.73758C176.368 3.27471 177.338 4.04575 178.015 5.04637C178.697 6.05132 179.035 7.2382 179.035 8.62C179.035 10.0018 178.697 11.1887 178.015 12.1936C177.333 13.1943 176.363 13.9653 175.109 14.5024C173.851 15.0396 172.341 15.3081 170.584 15.3081H164.457L166.105 13.6707V20.7357H162.417L162.412 20.7314ZM166.1 14.0433L164.453 12.3496H170.41C172.035 12.3496 173.261 12.0247 174.084 11.3706C174.908 10.7165 175.32 9.79822 175.32 8.62C175.32 7.44179 174.908 6.49748 174.084 5.85206C173.261 5.20664 172.039 4.88609 170.41 4.88609H164.453L166.1 3.16641V14.0433Z" fill="url(#paint10_linear_0_62)"/>
<path d="M183.007 20.7314V1.93188H191.179C192.936 1.93188 194.446 2.20045 195.704 2.73758C196.963 3.27471 197.933 4.04575 198.61 5.04637C199.292 6.05132 199.63 7.2382 199.63 8.62C199.63 10.0018 199.292 11.1844 198.61 12.1763C197.928 13.1683 196.958 13.9306 195.704 14.4591C194.446 14.9876 192.936 15.2518 191.179 15.2518H185.052L186.699 13.6664V20.7314H183.012H183.007ZM186.695 14.0433L185.048 12.3799H191.005C192.629 12.3799 193.856 12.0507 194.679 11.388C195.503 10.7252 195.915 9.80255 195.915 8.62C195.915 7.43745 195.503 6.49748 194.679 5.85206C193.856 5.20664 192.634 4.88609 191.005 4.88609H185.048L186.695 3.16641V14.0433ZM196.002 20.7314L190.982 13.909H194.926L199.978 20.7314H196.006H196.002Z" fill="url(#paint11_linear_0_62)"/>
<path d="M213.334 21C211.783 21 210.355 20.7574 209.051 20.2766C207.747 19.7914 206.613 19.1157 205.647 18.2493C204.682 17.383 203.936 16.3607 203.405 15.1868C202.874 14.013 202.609 12.7308 202.609 11.3316C202.609 9.93251 202.874 8.65034 203.405 7.47645C203.936 6.30256 204.682 5.28462 205.647 4.41395C206.613 3.54761 207.747 2.87187 209.051 2.38672C210.355 1.90157 211.774 1.66333 213.307 1.66333C214.84 1.66333 216.281 1.9059 217.576 2.38672C218.871 2.87187 220.001 3.54761 220.966 4.41395C221.932 5.28462 222.678 6.30256 223.208 7.47645C223.739 8.65034 224.005 9.93251 224.005 11.3316C224.005 12.7308 223.739 14.0173 223.208 15.1998C222.678 16.3824 221.932 17.4003 220.966 18.2623C220.001 19.12 218.871 19.7914 217.576 20.2766C216.281 20.7617 214.867 21 213.334 21ZM213.307 17.9375C214.309 17.9375 215.238 17.7772 216.089 17.4523C216.94 17.1318 217.676 16.6683 218.303 16.0705C218.926 15.4727 219.415 14.771 219.763 13.974C220.111 13.1769 220.289 12.2933 220.289 11.3273C220.289 10.3614 220.115 9.47769 219.763 8.68066C219.411 7.88363 218.926 7.18623 218.303 6.58412C217.681 5.98635 216.94 5.52286 216.089 5.20232C215.238 4.88177 214.309 4.71717 213.307 4.71717C212.305 4.71717 211.38 4.87744 210.543 5.20232C209.701 5.52286 208.964 5.98635 208.328 6.58412C207.692 7.18623 207.203 7.88363 206.855 8.68066C206.503 9.47769 206.329 10.3614 206.329 11.3273C206.329 12.2933 206.503 13.1553 206.855 13.961C207.203 14.7667 207.692 15.4684 208.315 16.0705C208.937 16.6726 209.678 17.1318 210.529 17.4523C211.38 17.7729 212.305 17.9375 213.311 17.9375H213.307Z" fill="url(#paint12_linear_0_62)"/>
<defs>
<linearGradient id="paint0_linear_0_62" x1="0" y1="10.5" x2="224" y2="10.5" gradientUnits="userSpaceOnUse">
<stop stop-color="#E83C53"/>
<stop offset="1" stop-color="#802B86"/>
</linearGradient>
<linearGradient id="paint1_linear_0_62" x1="3.35887e-06" y1="10.5" x2="224" y2="10.5" gradientUnits="userSpaceOnUse">
<stop stop-color="#E83C53"/>
<stop offset="1" stop-color="#802B86"/>
</linearGradient>
<linearGradient id="paint2_linear_0_62" x1="-3.3164e-06" y1="10.5" x2="224" y2="10.5" gradientUnits="userSpaceOnUse">
<stop stop-color="#E83C53"/>
<stop offset="1" stop-color="#802B86"/>
</linearGradient>
<linearGradient id="paint3_linear_0_62" x1="-8.95495e-06" y1="10.5" x2="224" y2="10.5" gradientUnits="userSpaceOnUse">
<stop stop-color="#E83C53"/>
<stop offset="1" stop-color="#802B86"/>
</linearGradient>
<linearGradient id="paint4_linear_0_62" x1="7.72971e-06" y1="10.4999" x2="224" y2="10.4999" gradientUnits="userSpaceOnUse">
<stop stop-color="#E83C53"/>
<stop offset="1" stop-color="#802B86"/>
</linearGradient>
<linearGradient id="paint5_linear_0_62" x1="-2.15773e-05" y1="10.5" x2="224" y2="10.5" gradientUnits="userSpaceOnUse">
<stop stop-color="#E83C53"/>
<stop offset="1" stop-color="#802B86"/>
</linearGradient>
<linearGradient id="paint6_linear_0_62" x1="-2.40292e-06" y1="10.4999" x2="224" y2="10.4999" gradientUnits="userSpaceOnUse">
<stop stop-color="#E83C53"/>
<stop offset="1" stop-color="#802B86"/>
</linearGradient>
<linearGradient id="paint7_linear_0_62" x1="-3.69637e-06" y1="10.4999" x2="224" y2="10.4999" gradientUnits="userSpaceOnUse">
<stop stop-color="#E83C53"/>
<stop offset="1" stop-color="#802B86"/>
</linearGradient>
<linearGradient id="paint8_linear_0_62" x1="-9.5766e-05" y1="10.4999" x2="224" y2="10.4999" gradientUnits="userSpaceOnUse">
<stop stop-color="#E83C53"/>
<stop offset="1" stop-color="#802B86"/>
</linearGradient>
<linearGradient id="paint9_linear_0_62" x1="-3.0788e-06" y1="10.4999" x2="224" y2="10.4999" gradientUnits="userSpaceOnUse">
<stop stop-color="#E83C53"/>
<stop offset="1" stop-color="#802B86"/>
</linearGradient>
<linearGradient id="paint10_linear_0_62" x1="6.31127e-05" y1="10.5" x2="224" y2="10.5" gradientUnits="userSpaceOnUse">
<stop stop-color="#E83C53"/>
<stop offset="1" stop-color="#802B86"/>
</linearGradient>
<linearGradient id="paint11_linear_0_62" x1="2.50462e-05" y1="10.5" x2="224" y2="10.5" gradientUnits="userSpaceOnUse">
<stop stop-color="#E83C53"/>
<stop offset="1" stop-color="#802B86"/>
</linearGradient>
<linearGradient id="paint12_linear_0_62" x1="-4.8619e-05" y1="10.5" x2="224" y2="10.5" gradientUnits="userSpaceOnUse">
<stop stop-color="#E83C53"/>
<stop offset="1" stop-color="#802B86"/>
</linearGradient>
</defs>
</svg>
